# AST/ASF file generated using VICON BodyLanguage
# -----------------------------------------------
:version 1.10
:name VICON
:units
  mass 1.0
  length 0.45
  angle deg
:documentation
   .ast/.asf automatically generated from VICON data using
   VICON BodyBuilder and BodyLanguage model FoxedUp or BRILLIANT.MOD
:root
   order TX TY TZ RX RY RZ
   axis XYZ
   position 0 0 0  
   orientation 0 0 0 
:bonedata
  begin
     id 1 
     name lhipjoint
     direction 0.653368 -0.678499 0.335782 
     length 2.51848 
     axis 0 0 0  XYZ
  end
  begin
     id 2 
     name lfemur
     direction 0.34202 -0.939693 0  
     length 6.57749  
     axis 0 0 20  XYZ
    dof rx ry rz
    limits (-160.0 20.0)
           (-70.0 70.0)
           (-60.0 70.0)
  end
  begin
     id 3 
     name ltibia
     direction 0.34202 -0.939693 0   
     length 7.94618   
     axis 0 0 20   XYZ
    dof rx
    limits (-10.0 170.0)
  end
  begin
     id 4 
     name lfoot
     direction 0.0811271 -0.222895 0.971461   
     length 2.31339   
     axis -90 7.62852e-016 20   XYZ
    dof rx rz
    limits (-45.0 90.0)
           (-70.0 20.0)
  end
  begin
     id 5 
     name ltoes
     direction 1.53568e-011 -4.21885e-011 1   
     length 1.15935   
     axis -90 7.62852e-016 20   XYZ
    dof rx
    limits (-90.0 20.0)
  end
  begin
     id 6 
     name rhipjoint
     direction -0.640058 -0.688614 0.340788   
     length 2.48149  
     axis 0 0 0  XYZ 
  end
  begin
     id 7 
     name rfemur
     direction -0.34202 -0.939693 0   
     length 6.57875   
     axis 0 0 -20   XYZ
    dof rx ry rz
    limits (-160.0 20.0)
           (-70.0 70.0)
           (-70.0 60.0)
  end
  begin
     id 8 
     name rtibia
     direction -0.34202 -0.939693 0   
     length 7.977   
     axis 0 0 -20   XYZ
    dof rx
    limits (-10.0 170.0)
 end
 begin
     id 9 
     name rfoot
     direction -0.0979793 -0.269196 0.958089   
     length 2.19857  
     axis -90 -7.62852e-016 -20   XYZ
    dof rx rz
    limits (-45.0 90.0)
           (-20.0 70.0)
  end
  begin
     id 10 
     name rtoes
     direction -1.53556e-011 -4.21868e-011 1   
     length 1.09838   
     axis -90 -7.62852e-016 -20   XYZ
    dof rx
    limits (-90.0 20.0)
  end
  begin
     id 11 
     name lowerback
     direction 0.0149039 0.998517 -0.0523597   
     length 2.10809   
     axis 0 0 0   XYZ
    dof rx ry rz
    limits (-20.0 45.0)
           (-30.0 30.0)
           (-30.0 30.0)
  end
  begin
     id 12 
     name upperback
     direction -0.00882659 0.999418 -0.0329624   
     length 2.1102   
     axis 0 0 0   XYZ
    dof rx ry rz
    limits (-20.0 45.0)
           (-30.0 30.0)
           (-30.0 30.0)
  end
  begin
     id 13 
     name thorax
     direction -0.0165585 0.999826 -0.0085833   
     length 2.11039   
     axis 0 0 0   XYZ
    dof rx ry rz
    limits (-20.0 45.0)
           (-30.0 30.0)
           (-30.0 30.0)
  end
  begin
     id 14 
     name lowerneck
     direction -0.0130877 0.999911 0.00260353   
     length 1.73253   
     axis 0 0 0   XYZ
    dof rx ry rz
    limits (-20.0 45.0)
           (-30.0 30.0)
           (-30.0 30.0)
  end
  begin
     id 15 
     name upperneck
     direction -0.0348454 0.928205 -0.370435   
     length 1.66692   
     axis 0 0 0   XYZ
    dof rx ry rz
    limits (-20.0 45.0)
           (-30.0 30.0)
           (-30.0 30.0)
  end
  begin
     id 16
     name head
     direction -0.00807754 0.992494 -0.122026  
     length 1.72765  
     axis 0 0 0   XYZ
    dof rx ry rz
    limits (-20.0 45.0)
           (-30.0 30.0)
           (-30.0 30.0)
  end
  begin
     id 17 
     name lclavicle
     direction 0.987582 0.144023 0.0627671  
     length 3.49235  
     axis 0 0 0   XYZ
    dof ry rz
    limits (-20.0 10.0)
           (0.0 20.0)
  end
  begin
     id 18 
     name lhumerus
     direction 1 -4.48958e-011 -1.45183e-018   
     length 5.41917   
     axis 180 -30 -90   XYZ
    dof rx ry rz
    limits (-60.0 90.0)
           (-90.0 90.0)
           (-90.0 90.0)
  end
  begin
     id 19
     name lradius
     direction 1 -4.48999e-011 5.75106e-027   
     length 2.44373   
     axis 180 -30 -90   XYZ
    dof rx
    limits (-10.0 170.0)
  end
  begin
     id 20
     name lwrist
     direction 1 -4.48987e-011 1.53461e-026   
     length 1.22186   
     axis -1.09697e-014 90 90   XYZ
    dof ry
    limits (-180.0 0.0)
 end
  begin
     id 21 
     name lhand
     direction 1 -4.48881e-011 3.06923e-026   
     length 0.727502   
     axis -1.95843e-014 90 90   XYZ
    dof rx rz
    limits (-90.0 90.0)
           (-45.0 45.0)
  end
  begin
     id 22 
     name lfingers
     direction 1 -4.48907e-011 6.13845e-026   
     length 0.586531   
     axis -3.91686e-014 90 90   XYZ
    dof rx
    limits (0.0 90.0)
  end
  begin
     id 23
     name lthumb
     direction 0.707107 -6.3487e-011 0.707107   
     length 0.842145   
     axis -90 45 2.85299e-015   XYZ
    dof rx rz
    limits (-45.0 45.0)
           (-45.0 45.0)
  end
  begin
     id 24 
     name rclavicle
     direction -0.980998 0.169556 0.0943023   
     length 3.29272  
     axis 0 0 0   XYZ 
    dof ry rz
    limits (-10.0 20.0)
           (-20.0 0.0)
  end
  begin
     id 25 
     name rhumerus
     direction -1 -1.83355e-005 2.45537e-005  
     length 5.58976   
     axis 180 30 90   XYZ
    dof rx ry rz
    limits (-90.0 60.0)
           (-90.0 90.0)
           (-90.0 90.0)
  end
  begin
     id 26 
     name rradius
     direction -1 -4.48967e-011 5.97228e-027   
     length 2.4806   
     axis 180 30 90   XYZ
    dof rx
    limits (-10.0 170.0)
  end
  begin
     id 27 
     name rwrist
     direction -1 -4.48963e-011 1.53461e-026   
     length 1.2403   
     axis -1.09697e-014 -90 -90   XYZ
    dof ry
    limits (-180.0 0.0)
  end
  begin
     id 28
     name rhand
     direction -1 -4.48881e-011 3.06923e-026   
     length 0.816009   
     axis -1.95843e-014 -90 -90   XYZ
    dof rx rz
    limits (-90.0 90.0)
           (-45.0 45.0)
  end
  begin
     id 29
     name rfingers
     direction -1 -4.49018e-011 6.13845e-026   
     length 0.657887   
     axis -3.91686e-014 -90 -90   XYZ
    dof rx
    limits (0.0 90.0)
  end
  begin
     id 30
     name rthumb
     direction -0.707107 -6.34872e-011 0.707107   
     length 0.944599   
     axis -90 -45 -2.85299e-015   XYZ
    dof rx rz
    limits (-45.0 45.0)
           (-45.0 45.0)
  end
:hierarchy
  begin
    root lhipjoint rhipjoint lowerback
    lhipjoint lfemur
    lfemur ltibia
    ltibia lfoot
    lfoot ltoes
    rhipjoint rfemur
    rfemur rtibia
    rtibia rfoot
    rfoot rtoes
    lowerback upperback
    upperback thorax
    thorax lowerneck lclavicle rclavicle
    lowerneck upperneck
    upperneck head
    lclavicle lhumerus
    lhumerus lradius
    lradius lwrist
    lwrist lhand lthumb
    lhand lfingers
    rclavicle rhumerus
    rhumerus rradius
    rradius rwrist
    rwrist rhand rthumb
    rhand rfingers
  end

#!OML:ASF F:\VICON\USERDATA\INSTALL\rory3\rory3.ASF
:FULLY-SPECIFIED
:DEGREES
83
root 1.3103 17.9415 28.9602 -157.91 -14.4473 -182.278
lowerback -5.56422 -4.61945 -2.93616
upperback -9.44024 -7.11381 1.29951
thorax -6.27239 -3.74174 3.00338
lowerneck -14.7448 -1.11459 1.92555
upperneck 32.2751 0.831815 -1.4826
head 13.3099 1.32142 -0.571593
rclavicle 3.69742e-014 2.13197e-014
rhumerus -95.3971 -77.8291 72.0207
rradius 12.144
rwrist 71.1016
rhand -0.731194 4.92772
rfingers 7.12502
rthumb 24.8898 -23.4718
lclavicle 3.69742e-014 2.13197e-014
lhumerus 36.3186 -12.1305 47.8378
lradius 17.7493
lwrist -46.915
lhand -2.58615 29.1613
lfingers 7.12502
lthumb 23.1111 57.7952
rfemur -58.4038 8.45448 13.1607
rtibia 48.1559
rfoot -27.7871 -30.4781
rtoes 50.8906
lfemur -23.17 -0.025354 -27.4057
ltibia 36.8323
lfoot -2.81936 18.0011
ltoes -14.1624
84
root 1.30614 17.9147 28.9451 -157.826 -14.4401 -182.004
lowerback -5.38222 -4.48372 -2.56397
upperback -9.31355 -6.90524 1.32548
thorax -6.28483 -3.6473 2.83961
lowerneck -15.0634 1.64019 1.09042
upperneck 32.3483 -0.358452 -0.15114
head 13.4089 -0.942528 -0.520717
rclavicle -6.36876e-014 -3.22528e-014
rhumerus -93.9806 -77.9682 71.1686
rradius 12.2013
rwrist 70.2929
rhand -1.77556 4.58518
rfingers 7.12502
rthumb 23.8886 -23.9491
lclavicle -6.36876e-014 -3.22528e-014
lhumerus 36.8779 -13.3761 45.9992
lradius 18.1144
lwrist -47.0408
lhand -3.03482 29.1513
lfingers 7.12502
lthumb 22.6805 57.8385
rfemur -59.3196 11.4744 11.1005
rtibia 47.7915
rfoot -35.1734 -27.569
rtoes 53.7652
lfemur -23.4157 -0.0402145 -27.1368
ltibia 37.0935
lfoot -1.61739 17.8649
ltoes -16.6212
85
root 1.30386 17.8682 28.9306 -157.716 -14.4781 -181.602
lowerback -5.12011 -4.37014 -2.0855
upperback -9.35739 -6.75906 1.39924
thorax -6.52907 -3.59474 2.6887
lowerneck -14.9656 1.59482 0.952557
upperneck 32.327 -0.510607 0.196462
head 13.3786 -0.981034 -0.383383
rclavicle -7.18816e-014 -3.00662e-014
rhumerus -92.9763 -78.0359 70.7794
rradius 12.3032
rwrist 70.0107
rhand -2.53247 4.60561
rfingers 7.12502
rthumb 23.1626 -24.0218
lclavicle -7.18816e-014 -3.00662e-014
lhumerus 37.1472 -14.3078 44.4399
lradius 18.4445
lwrist -47.0813
lhand -3.25331 29.3275
lfingers 7.12502
lthumb 22.4708 58.0401
rfemur -60.3888 13.9748 9.40711
rtibia 47.5031
rfoot -40.29 -24.8823
rtoes 55.2866
lfemur -23.6946 0.0477643 -26.6963
ltibia 37.3676
lfoot -1.25467 17.7543
ltoes -19.9754
86
root 1.3025 17.8063 28.9208 -157.491 -14.1164 -181.251
lowerback -4.85723 -4.17885 -1.77654
upperback -9.34585 -6.49709 1.4529
thorax -6.70364 -3.47387 2.60323
lowerneck -15.1803 1.47526 0.845535
upperneck 32.1435 -0.673134 0.42923
head 13.347 -1.01034 -0.292706
rclavicle 2.52379e-014 7.45443e-016
rhumerus -95.8674 -78.2828 74.3548
rradius 12.39
rwrist 70.5925
rhand -3.33027 4.76231
rfingers 7.12502
rthumb 22.397 -23.9593
lclavicle 2.52379e-014 7.45443e-016
lhumerus 37.7866 -15.5087 42.1827
lradius 18.8432
lwrist -45.7106
lhand -3.17747 29.5272
lfingers 7.12502
lthumb 22.5436 58.2311
rfemur -61.2455 13.0417 9.98775
rtibia 47.2984
rfoot -39.4005 -23.8017
rtoes 55.5332
lfemur -24.0491 0.372785 -26.4343
ltibia 37.627
lfoot -1.58965 16.8327
ltoes -21.8843
87
root 1.30324 17.7328 28.9187 -157.01 -13.3498 -180.789
lowerback -4.91869 -3.9548 -1.56794
upperback -9.33492 -6.19434 1.5987
thorax -6.6753 -3.33499 2.63421
lowerneck -15.5666 1.46309 0.847707
upperneck 32.0264 -0.64835 0.484621
head 13.3811 -0.966114 -0.262558
rclavicle 7.70073e-014 2.83268e-015
rhumerus -97.9277 -78.9099 76.9482
rradius 12.4235
rwrist 71.0475
rhand -4.49889 4.55257
rfingers 7.12502
rthumb 21.2748 -24.2998
lclavicle 7.70073e-014 2.83268e-015
lhumerus 38.3208 -15.9954 40.1169
lradius 19.1071
lwrist -44.7239
lhand -3.16182 29.6237
lfingers 7.12502
lthumb 22.5587 58.3258
rfemur -62.6519 12.4348 10.4494
rtibia 47.1331
rfoot -37.0734 -25.0223
rtoes 54.674
lfemur -24.6022 1.03389 -26.2006
ltibia 37.8647
lfoot -2.74346 15.8923
ltoes -23.8664
88
root 1.30655 17.6549 28.9086 -156.648 -12.6386 -180.429
lowerback -4.953 -3.76553 -1.51197
upperback -9.30679 -5.93856 1.66119
thorax -6.63614 -3.21104 2.66352
lowerneck -15.74 1.48344 0.930112
upperneck 31.8484 -0.671926 0.718581
head 13.3443 -0.9154 -0.183736
rclavicle 1.89249e-014 -9.44227e-015
rhumerus -99.263 -79.3408 78.7577
rradius 12.5193
rwrist 71.6142
rhand -5.54788 4.71616
rfingers 7.12502
rthumb 20.2669 -24.2465
lclavicle 1.89249e-014 -9.44227e-015
lhumerus 38.6376 -16.3682 37.8915
lradius 19.2515
lwrist -44.3378
lhand -3.87348 28.7407
lfingers 7.12502
lthumb 21.8754 57.5241
rfemur -63.8589 11.8376 10.9781
rtibia 47.097
rfoot -33.1138 -27.7276
rtoes 52.4381
lfemur -24.8525 2.00367 -26.0851
ltibia 38.1206
lfoot -3.82453 14.6912
ltoes -26.795
89
root 1.31109 17.582 28.8751 -156.911 -11.8694 -179.923
lowerback -4.69812 -3.60062 -1.46488
upperback -9.02126 -5.66039 1.72867
thorax -6.4807 -3.05381 2.70835
lowerneck -15.7462 -0.973372 1.89294
upperneck 31.3952 0.251366 -0.158541
head 13.142 1.11353 -0.164999
rclavicle 3.95706e-015 4.37326e-015
rhumerus -85.9107 -79.632 65.5357
rradius 12.5943
rwrist 69.3622
rhand -6.61656 4.48512
rfingers 7.12502
rthumb 19.2396 -24.5832
lclavicle 3.95706e-015 4.37326e-015
lhumerus 38.9434 -15.8996 36.5861
lradius 19.3371
lwrist -43.5541
lhand -4.21056 29.4502
lfingers 7.12502
lthumb 21.5517 58.2711
rfemur -64.3371 11.5527 11.8432
rtibia 47.1197
rfoot -26.5933 -31.8001
rtoes 47.5622
lfemur -24.3861 2.9281 -25.7446
ltibia 38.4097
lfoot -4.81578 13.6861
ltoes -31.1882
90
root 1.31864 17.5113 28.8891 -156.383 -12.4777 -180.1
lowerback -4.30889 -3.94186 -1.48966
upperback -9.04161 -6.10727 1.78729
thorax -6.69286 -3.26176 2.8209
lowerneck -16.0524 -0.776578 2.17307
upperneck 31.0277 0.269669 0.0298776
head 13.0544 1.13555 -0.147654
rclavicle -3.14887e-014 -2.92213e-014
rhumerus -82.8631 -80.1505 62.7022
rradius 12.6412
rwrist 68.8147
rhand -8.18725 3.79112
rfingers 7.12502
rthumb 17.7287 -25.4207
lclavicle -3.14887e-014 -2.92213e-014
lhumerus 39.1943 -15.3682 34.9867
lradius 19.4236
lwrist -43.2648
lhand -4.42303 29.3512
lfingers 7.12502
lthumb 21.3477 58.1953
rfemur -65.3737 9.56875 12.5112
rtibia 47.2493
rfoot -21.2316 -33.9538
rtoes 43.6588
lfemur -24.9744 2.25617 -25.6074
ltibia 38.7912
lfoot -5.64421 12.8662
ltoes -34.0696
91
root 1.33834 17.4253 28.8813 -156.109 -12.4353 -180.054
lowerback -3.91666 -4.07746 -1.77695
upperback -8.78841 -6.22951 1.89297
thorax -6.59483 -3.27852 3.10445
lowerneck -17.0883 -0.548273 2.6388
upperneck 30.7075 0.258461 -0.0170474
head 13.1433 1.10988 -0.260646
rclavicle 5.00937e-014 3.29983e-014
rhumerus -116.4 -80.3625 96.9073
rradius 12.7082
rwrist 73.8039
rhand -9.72743 4.09918
rfingers 7.12502
rthumb 16.2461 -25.2401
lclavicle 5.00937e-014 3.29983e-014
lhumerus 39.6108 -14.4593 33.53
lradius 19.5638
lwrist -43.2534
lhand -4.19648 29.9555
lfingers 7.12502
lthumb 21.5653 58.7748
rfemur -66.178 8.44691 13.2928
rtibia 47.4123
rfoot -18.9528 -34.1666
rtoes 42.7712
lfemur -25.2633 2.0536 -25.4137
ltibia 39.2076
lfoot -6.93163 12.2943
ltoes -35.8058
